<svg width="279" height="281" viewBox="0 0 279 281" fill="none" xmlns="http://www.w3.org/2000/svg">
<g filter="url(#filter0_f_52_248)">
<g clip-path="url(#clip0_52_248)">
<rect y="82.2007" width="210.855" height="215.88" rx="105.427" transform="rotate(-22.9448 0 82.2007)" fill="#D3B200"/>
<path d="M72.4454 126.678C72.4454 126.678 85.7067 123.194 108.446 118.892C131.186 114.59 146.372 147.563 148.178 148.928C149.985 150.293 154.532 149.433 155.468 145.842C156.404 142.251 150.287 127.802 157.195 123.813C157.195 123.813 162.678 119.362 167.991 120.307C173.304 121.253 178.063 126.693 176.191 133.875C174.319 141.057 168.11 155.399 168.11 155.399C169.257 158.108 179.988 163.15 179.988 163.15M72.4454 126.678C72.4454 126.678 61.9259 127.937 59.5266 119.369C57.1272 110.8 53.0274 104.016 62.3603 88.3514C71.6931 72.6864 123.789 30.3988 172.446 64.111C215.131 98.2215 179.988 163.15 179.988 163.15M72.4454 126.678C63.2839 136.946 82.5702 176.703 82.5702 176.703C82.5702 176.703 95.7139 222.254 112.205 220.597C125.398 219.272 149.867 199.329 149.867 199.329M179.988 163.15C179.988 163.15 176.798 173.02 170.378 181.062C163.959 189.104 149.867 199.329 149.867 199.329M149.867 199.329L164.566 228.249M191.917 130.412C191.917 130.412 191.061 157.397 196.413 170.04C196.518 173.19 206.946 200.723 206.946 200.723" stroke="white" stroke-width="4"/>
</g>
</g>
<defs>
<filter id="filter0_f_52_248" x="-4" y="-4" width="286.332" height="289" filterUnits="userSpaceOnUse" color-interpolation-filters="sRGB">
<feFlood flood-opacity="0" result="BackgroundImageFix"/>
<feBlend mode="normal" in="SourceGraphic" in2="BackgroundImageFix" result="shape"/>
<feGaussianBlur stdDeviation="2" result="effect1_foregroundBlur_52_248"/>
</filter>
<clipPath id="clip0_52_248">
<rect y="82.2007" width="210.855" height="215.88" rx="105.427" transform="rotate(-22.9448 0 82.2007)" fill="white"/>
</clipPath>
</defs>
</svg>
