<svg width="100%" height="100%" viewBox="0 0 3000 4000" fill="none" xmlns="http://www.w3.org/2000/svg">
  <defs>
    <clipPath id="halfClip">
      <rect x="0" y="0" width="2427" height="417.5" />
    </clipPath>
  </defs>
  <g clip-path="url(#halfClip)">
    <ellipse cx="861.982" cy="436.483" rx="861.982" ry="436.483" transform="matrix(0.998664 0.0516789 -0.520208 0.85404 454.124 0)" fill="#252525"/>
    <path d="M463 485L519.5 432M382 560L438.5 507" stroke="#EAC813"/>
    <path d="M378 460L505 601M410.5 409L553.5 577M378 685.5L624.5 409" stroke="#EAC813"/>
    <g filter="url(#filter0_f_442_363)">
      <g clip-path="url(#clip0_442_363)">
        <rect x="888" y="569.678" width="171.037" height="179.526" rx="85.5186" transform="rotate(-22.9448 888 569.678)" fill="#D3B200"/>
        <path d="M944.991 607.847C944.991 607.847 955.067 605.112 972.318 601.634C989.568 598.157 1000.52 621.827 1001.87 622.788C1003.21 623.75 1006.66 623.054 1007.43 620.436C1008.19 617.817 1003.79 607.436 1009.08 604.435C1009.08 604.435 1013.29 601.121 1017.29 601.723C1021.29 602.325 1024.8 606.194 1023.27 611.432C1021.75 616.669 1016.83 627.166 1016.83 627.166C1017.65 629.113 1025.68 632.6 1025.68 632.6M944.991 607.847C944.991 607.847 937.022 608.925 935.344 602.75C933.666 596.575 930.675 591.72 937.974 580.214C945.273 568.708 985.305 537.225 1021.54 560.904C1053.26 584.966 1025.68 632.6 1025.68 632.6M944.991 607.847C937.907 615.437 951.854 643.961 951.854 643.961C951.854 643.961 961.069 676.784 973.557 675.323C983.547 674.154 1002.35 659.308 1002.35 659.308M1025.68 632.6C1025.68 632.6 1023.11 639.807 1018.14 645.739C1013.16 651.672 1002.35 659.308 1002.35 659.308M1002.35 659.308L1013 680.047M1035.21 608.673C1035.21 608.673 1034.14 628.254 1037.98 637.337C1038.01 639.62 1045.46 659.42 1045.46 659.42" stroke="white" stroke-width="4"/>
      </g>
    </g>
    <g filter="url(#filter1_d_442_363)">
      <rect x="938" y="545" width="127" height="143" rx="63.5" fill="#BDA839"/>
      <path d="M976.066 595.554C976.066 595.554 982.226 596.637 992.493 599.343C1002.76 602.049 1003.27 622.076 1003.79 623.158C1004.3 624.241 1006.35 624.782 1007.38 623.158C1008.41 621.535 1008.41 612.875 1012 612.333C1012 612.333 1015.08 611.251 1017.13 612.875C1019.19 614.498 1020.21 618.287 1018.16 621.535C1016.11 624.782 1010.97 630.736 1010.97 630.736C1010.97 632.36 1014.57 637.231 1014.57 637.231M976.066 595.554C976.066 595.554 971.446 593.931 971.959 589.059C972.472 584.188 971.959 579.858 978.633 573.904C985.306 567.95 1014.57 557.667 1028.94 585.271C1040.75 611.792 1014.57 637.231 1014.57 637.231M976.066 595.554C970.419 598.802 971.446 623.158 971.446 623.158C971.446 623.158 968.879 649.139 976.066 651.845C981.815 654.01 995.573 649.139 995.573 649.139M1014.57 637.231C1014.57 637.231 1011.49 641.561 1007.38 644.267C1003.27 646.974 995.573 649.139 995.573 649.139M995.573 649.139L996.6 667M1025.35 623.158C1025.35 623.158 1020.21 636.69 1020.21 644.267C1019.7 645.891 1019.19 662.129 1019.19 662.129" stroke="white" stroke-width="4"/>
    </g>
    <path d="M1488.01 516.805L1619.5 393M1321 662L1430.99 568.195" stroke="#EAC813"/>
    <path d="M1401.5 450.604L1567.91 673.45M1444.09 370L1631.47 635.519M1287 764.5L1724.5 370" stroke="#EAC813"/>
  </g>
</svg>
