<svg width="59" height="57" viewBox="0 0 59 57" fill="none" xmlns="http://www.w3.org/2000/svg">
<g clip-path="url(#clip0_636_546)">
<path d="M42.5966 17.769L42.6187 17.7707M20.218 6.38305L42.3219 8.02513C48.4257 8.47858 52.9607 13.6525 52.4511 19.5815L50.6054 41.0521C50.0958 46.9811 44.7345 51.4199 38.6307 50.9664L16.5268 49.3243C10.4229 48.8709 5.88795 43.6969 6.3976 37.768L8.24321 16.2973C8.75286 10.3684 14.1141 5.9296 20.218 6.38305ZM38.3822 27.9789C38.5014 29.7861 38.0303 31.5877 37.0359 33.1275C36.0416 34.6673 34.5746 35.8668 32.8436 36.5556C31.1126 37.2443 29.2058 37.3872 27.3944 36.9638C25.583 36.5404 23.9592 35.5723 22.754 34.1973C21.5488 32.8223 20.8235 31.1103 20.6814 29.3049C20.5392 27.4994 20.9875 25.6925 21.9623 24.141C22.9371 22.5896 24.3888 21.3726 26.1111 20.6633C27.8333 19.9539 29.7383 19.7883 31.5551 20.1899C33.4083 20.5996 35.0725 21.578 36.3019 22.9806C37.5313 24.3832 38.2606 26.1356 38.3822 27.9789Z" stroke="#EAC813" stroke-width="4" stroke-linecap="round" stroke-linejoin="round"/>
</g>
<defs>
<clipPath id="clip0_636_546">
<rect width="53.1956" height="51.7196" fill="white" transform="matrix(0.997252 0.0740848 -0.0856438 0.996326 5.11426 0.939453)"/>
</clipPath>
</defs>
</svg>
