<svg width="218" height="121" viewBox="0 0 218 121" fill="none" xmlns="http://www.w3.org/2000/svg">
<path d="M16.4374 2.66908L200.756 2.04352C208.487 2.01728 214.777 8.26398 214.803 15.9959L215.014 78.0312C215.04 85.7632 208.793 92.0524 201.061 92.0787L111.372 92.3831C109.534 92.3893 107.664 92.6751 105.873 93.361C103.033 94.4488 97.8488 96.6131 91.1379 100.189C86.7851 102.508 82.0067 105.585 77.4498 108.52C75.1875 109.977 72.9798 111.399 70.9059 112.675C67.7196 114.637 64.8415 116.264 62.4307 117.28C61.2274 117.787 60.2025 118.116 59.3581 118.27C58.5006 118.426 57.9622 118.377 57.6483 118.274C57.5246 118.233 57.1106 117.996 56.6696 116.841C56.2505 115.744 55.9606 114.2 55.8001 112.328C54.8913 101.722 47.0359 91.6561 35.6986 91.926L17.0275 92.3705C9.1859 92.5571 2.721 86.2657 2.69438 78.422L2.48495 16.7165C2.45871 8.98457 8.70542 2.69532 16.4374 2.66908Z" fill="#BDA839" fill-opacity="0.95" stroke="black" stroke-width="4"/>
</svg>
