<svg width="587" height="430" viewBox="0 0 587 430" fill="none" xmlns="http://www.w3.org/2000/svg">
<path d="M86 77L142.5 24M5 152L61.5 99" stroke="#EAC813"/>
<path d="M1 52L128 193M33.5 1L176.5 169M1 277.5L247.5 1" stroke="#EAC813"/>
<path d="M83.2806 202.185C82.2783 203.135 82.2355 204.717 83.1851 205.719L98.6594 222.053C99.609 223.056 101.191 223.098 102.194 222.149C103.196 221.199 103.239 219.617 102.289 218.615L88.5342 204.096L103.053 190.341C104.056 189.391 104.098 187.809 103.149 186.806C102.199 185.804 100.617 185.761 99.6146 186.711L83.2806 202.185ZM84.9325 206.499L121.932 207.499L122.068 202.501L85.0675 201.501L84.9325 206.499Z" fill="white"/>
<path d="M349.509 181.805L481 58M182.5 327L292.491 233.195" stroke="#EAC813"/>
<path d="M263 115.604L429.414 338.45M305.586 35L492.966 300.519M148.5 429.5L586 35" stroke="#EAC813"/>
</svg>
